<svg id="svg" version="1.1" xmlns="http://www.w3.org/2000/svg" xmlns:xlink="http://www.w3.org/1999/xlink" width="400" height="525.8741258741259" viewBox="0, 0, 400,525.8741258741259"><g id="svgg"><path id="path0" d="M0.000 262.800 L 0.000 525.600 1.000 525.600 L 2.000 525.600 2.000 262.800 L 2.000 0.000 1.000 0.000 L 0.000 0.000 0.000 262.800 M18.229 15.429 C 17.456 16.201,17.242 511.384,18.014 512.826 C 18.528 513.786,383.761 514.079,384.720 513.120 C 385.679 512.161,385.387 15.728,384.426 15.214 C 382.985 14.443,19.001 14.656,18.229 15.429 M367.396 31.204 C 368.054 31.536,368.819 32.279,369.095 32.856 C 369.630 33.972,369.894 494.429,369.362 497.091 C 369.042 498.691,367.825 499.808,365.800 500.359 C 363.622 500.951,38.970 500.981,35.200 500.388 C 32.112 499.903,30.972 498.888,30.616 496.307 C 30.052 492.220,30.582 33.835,31.152 32.727 C 31.670 31.720,32.738 31.081,34.600 30.667 C 37.167 30.095,366.251 30.626,367.396 31.204 M50.048 45.632 C 47.644 46.104,46.566 46.905,45.936 48.686 C 45.140 50.934,45.137 480.656,45.932 482.903 C 46.479 484.450,47.198 485.025,49.356 485.645 C 51.661 486.308,350.935 486.121,352.527 485.456 C 353.666 484.980,353.960 484.580,354.372 482.947 C 355.011 480.409,355.011 54.073,354.372 50.042 C 353.830 46.624,353.532 46.179,351.436 45.651 C 349.261 45.103,52.835 45.084,50.048 45.632 M348.913 53.700 C 349.827 54.386,350.047 476.542,349.134 477.413 C 348.340 478.171,352.854 478.151,196.729 478.073 C 65.441 478.007,51.597 477.940,51.029 477.371 C 50.035 476.378,50.068 55.030,51.062 53.931 C 51.913 52.991,347.662 52.761,348.913 53.700 M65.062 67.931 C 64.122 68.970,64.028 462.139,64.968 463.424 C 65.823 464.593,333.917 464.655,335.086 463.486 C 336.255 462.316,336.193 68.623,335.024 67.768 C 333.657 66.768,65.968 66.931,65.062 67.931 " stroke="none" fill="#fbfcf7" fill-rule="evenodd"></path><path id="path1" d="M2.000 262.800 C 2.000 525.333,2.001 525.600,2.800 525.600 C 3.599 525.600,3.600 525.333,3.600 262.800 C 3.600 0.267,3.599 0.000,2.800 0.000 C 2.001 0.000,2.000 0.267,2.000 262.800 M17.144 13.965 L 16.200 14.729 16.099 263.910 L 15.998 513.090 16.828 514.145 L 17.658 515.200 201.429 515.200 C 384.667 515.200,385.202 515.198,386.000 514.400 C 386.798 513.602,386.800 513.067,386.800 264.229 L 386.800 14.858 385.746 14.029 L 384.692 13.200 201.390 13.200 C 21.509 13.200,18.071 13.214,17.144 13.965 M384.426 15.214 C 385.387 15.728,385.679 512.161,384.720 513.120 C 383.761 514.079,18.528 513.786,18.014 512.826 C 17.242 511.384,17.456 16.201,18.229 15.429 C 19.001 14.656,382.985 14.443,384.426 15.214 M51.062 53.931 C 50.068 55.030,50.035 476.378,51.029 477.371 C 51.597 477.940,65.441 478.007,196.729 478.073 C 352.742 478.151,348.340 478.170,349.130 477.417 C 350.041 476.548,349.827 54.383,348.915 53.700 C 347.661 52.761,51.913 52.991,51.062 53.931 M335.024 67.768 C 336.193 68.623,336.255 462.316,335.086 463.486 C 333.917 464.655,65.823 464.593,64.968 463.424 C 64.028 462.139,64.122 68.970,65.062 67.931 C 65.968 66.931,333.657 66.768,335.024 67.768 " stroke="none" fill="#7e7c7e" fill-rule="evenodd"></path><path id="path2" d="M34.600 30.667 C 32.738 31.081,31.670 31.720,31.152 32.727 C 30.582 33.835,30.052 492.220,30.616 496.307 C 30.972 498.888,32.112 499.903,35.200 500.388 C 38.970 500.981,363.622 500.951,365.800 500.359 C 367.825 499.808,369.042 498.691,369.362 497.091 C 369.894 494.429,369.630 33.972,369.095 32.856 C 367.925 30.414,381.845 30.605,200.800 30.544 C 109.830 30.514,35.040 30.569,34.600 30.667 M351.436 45.651 C 353.532 46.179,353.830 46.624,354.372 50.042 C 355.011 54.073,355.011 480.409,354.372 482.947 C 353.960 484.580,353.666 484.980,352.527 485.456 C 350.935 486.121,51.661 486.308,49.356 485.645 C 47.198 485.025,46.479 484.450,45.932 482.903 C 45.137 480.656,45.140 50.934,45.936 48.686 C 46.566 46.905,47.644 46.104,50.048 45.632 C 52.835 45.084,349.261 45.103,351.436 45.651 M349.693 462.400 C 349.693 463.170,349.775 463.485,349.876 463.100 C 349.976 462.715,349.976 462.085,349.876 461.700 C 349.775 461.315,349.693 461.630,349.693 462.400 " stroke="none" fill="#badb43" fill-rule="evenodd"></path><path id="path3" d="M3.600 262.800 L 3.600 525.600 201.800 525.600 L 400.000 525.600 400.000 262.800 L 400.000 0.000 201.800 0.000 L 3.600 0.000 3.600 262.800 M385.746 14.029 L 386.800 14.858 386.800 264.229 C 386.800 513.067,386.798 513.602,386.000 514.400 C 385.202 515.198,384.667 515.200,201.429 515.200 L 17.658 515.200 16.828 514.145 L 15.998 513.090 16.099 263.910 L 16.200 14.729 17.144 13.965 C 18.071 13.214,21.509 13.200,201.390 13.200 L 384.692 13.200 385.746 14.029 " stroke="none" fill="#040404" fill-rule="evenodd"></path></g></svg>